<?xml version="1.0" encoding="UTF-8" standalone="no"?>
<!-- Created with Inkscape (http://www.inkscape.org/) -->

<svg
   width="737.06262mm"
   height="86.519989mm"
   viewBox="0 0 737.06262 86.519989"
   version="1.1"
   id="svg5"
   inkscape:version="1.1.1 (3bf5ae0d25, 2021-09-20)"
   sodipodi:docname="Logo.svg"
   xmlns:inkscape="http://www.inkscape.org/namespaces/inkscape"
   xmlns:sodipodi="http://sodipodi.sourceforge.net/DTD/sodipodi-0.dtd"
   xmlns="http://www.w3.org/2000/svg"
   xmlns:svg="http://www.w3.org/2000/svg">
  <sodipodi:namedview
     id="namedview7"
     pagecolor="#ffffff"
     bordercolor="#666666"
     borderopacity="1.0"
     inkscape:pageshadow="2"
     inkscape:pageopacity="0.0"
     inkscape:pagecheckerboard="0"
     inkscape:document-units="mm"
     showgrid="false"
     inkscape:zoom="0.45291836"
     inkscape:cx="1602.9379"
     inkscape:cy="26.494841"
     inkscape:window-width="3840"
     inkscape:window-height="2066"
     inkscape:window-x="2869"
     inkscape:window-y="-11"
     inkscape:window-maximized="1"
     inkscape:current-layer="layer1" />
  <defs
     id="defs2" />
  <g
     inkscape:label="Warstwa 1"
     inkscape:groupmode="layer"
     id="layer1"
     transform="translate(402.50627,-80.520974)">
    <path
       style="fill:#000000;stroke-width:0.264583"
       d="m 19.504135,166.9947 -0.529167,-0.0458 -3.175,-0.31777 -3.174999,-0.31778 -3.1399705,-0.9059 -3.139995,-0.9059 -2.148704,-1.08035 -2.14868,-1.08034 -0.92904,-0.68683 -0.92902996,-0.68683 -1.64745004,-1.422 -1.64746,-1.42201 -2.32129,-2.66205 -2.3213,-2.66205 -1.08677,-1.13303 -1.08681,-1.13303 -0.6991295,-0.17548 -0.69916,-0.17547 -0.63617,0.15966 -0.63616,0.15967 -1.90693,2.18412 -1.90696,2.18412 -2.15323,2.32407 -2.15326,2.32408 -1.44846,1.11551 -1.44846,1.11551 -0.93279,0.57789 -0.93279,0.57789 -1.65388,0.80274 -1.65391,0.80275 -2.31484,0.73012 -2.31487,0.73012 -4.36562,-0.0133 -4.36563,-0.0133 -1.68188,-0.69981 -1.68187,-0.69982 -1.09996,-0.64462 -1.09995,-0.64462 -1.36117,-1.43924 -1.36121,-1.43925 -0.95443,-1.89526 -0.95443,-1.89525 -0.43283,-1.78417 -0.43283,-1.78416 -0.0259,-3.96875 -0.0259,-3.96875 0.19026,-1.45521 0.19024,-1.45521 0.14533,-1.19062 0.14536,-1.19063 0.27594,-1.32291 0.27596,-1.32292 0.66212,-2.77812 0.66215,-2.77813 0.93757,-3.04271 0.93758,-3.04271 0.34803,-0.79375 0.34804,-0.79375 0.18917,-0.79375 0.18918,-0.79375 0.19291,-0.26458 0.19291,-0.26458 0.53834,-1.45521 0.53835,-1.45521 0.9761,-2.24896 0.9761,-2.24896 1.56803,-3.175 1.56803,-3.175 0.85531,-1.49605 0.85532,-1.49605 0.9053,-1.54666 0.90527,-1.54665 1.72212,-2.513536 1.72212,-2.51355 1.76723,-2.11666 1.76724,-2.11667 2.08766,-2.02545 2.08765,-2.02544 1.29749,-0.98045 1.29749,-0.98045 1.48063,-0.9488 1.48064,-0.9488 1.98437,-0.97298 1.98438,-0.97298 1.5875,-0.53882 1.5875,-0.53883 3.175,-0.58138 3.1749995,-0.58139 2.11666,0.13482 2.11667,0.13482 2.64583004,0.54925 2.64582996,0.54924 1.7198,0.74395 1.71979,0.74395 1.058331,0.58775 1.058334,0.58774 0.508264,0.32796 0.508238,0.32796 0.531046,0.39687 0.531071,0.39688 1.3263565,1.19062 1.326357,1.19063 1.497885,1.5875 1.497886,1.5875 0.887254,1.05833 0.887227,1.05833 1.495531,1.52136 1.49553,1.52135 h 0.848546 0.848518 l 1.371812,-1.40311 1.371812,-1.40312 2.039858,-2.3777 2.039858,-2.3777 1.532017,-1.41659 1.532016,-1.41659 1.028145,-0.68957 1.028144,-0.68957 1.180915,-0.7353 1.180915,-0.7353 1.627399,-0.6903 1.627399,-0.69031 1.322916,-0.36204 1.322917,-0.36205 2.38125,-0.3941 2.38125,-0.3941 1.455208,0.007 1.455209,0.007 3.307291,0.62401 3.307292,0.62401 2.116666,0.84517 2.116667,0.84516 1.5875,0.83593 1.5875,0.83592 0.08818,0.20067 0.08821,0.20068 h 0.270643 0.270668 l 2.286979,1.7525 2.286979,1.7525 2.547514,2.60613 2.547488,2.60614 1.853697,2.45438 1.853697,2.45439 1.485768,2.289516 1.485794,2.28953 v 0.22401 0.22402 l 0.800788,1.19062 0.800788,1.19063 1.95072,3.96875 1.950693,3.96875 1.718284,4.10104 1.718283,4.10104 0.822008,2.46623 0.822034,2.46623 0.684583,2.42856 0.684556,2.42857 0.660585,2.64583 0.660586,2.64583 0.502232,3.175 0.502232,3.175 0.0034,4.25716 0.0034,4.25715 -0.524563,2.05103 -0.524563,2.05103 -0.8568,1.76161 -0.8568,1.7616 -1.5952,1.59937 -1.595199,1.59938 -1.322917,0.67771 -1.322916,0.67771 -1.455209,0.50104 -1.455208,0.50104 h -3.96875 -3.96875 l -2.248958,-0.62451 -2.248958,-0.6245 -1.634146,-0.73912 -1.63412,-0.73911 -1.913175,-1.23762 -1.913176,-1.23762 -2.93497,-2.9786 -2.934996,-2.97861 -1.82073,-2.03812 -1.82073,-2.03812 -0.758958,-0.39247 -0.758957,-0.39248 -0.76626,0.39626 -0.766286,0.39625 -1.681109,1.91908 -1.681136,1.91909 -2.645834,2.74031 -2.645833,2.74031 -1.316117,0.97042 -1.316117,0.97041 -1.337654,0.80554 -1.337653,0.80554 -1.447271,0.57396 -1.447271,0.57395 -2.645833,0.76872 -2.645834,0.76873 -3.042708,0.30338 -3.042708,0.30339 -1.5875,0.0619 -1.5875,0.0619 -0.529167,-0.0458 z m 261.937495,-0.24956 -2.38125,-0.0869 -5.68854,-0.28273 -5.68855,-0.28272 -4.5439,-0.50946 -4.54387,-0.50946 -1.14467,-0.2513 -1.14464,-0.2513 -2.64583,-0.45472 -2.64584,-0.45472 -3.57187,-0.87954 -3.57187,-0.87955 -1.85209,-0.6432 -1.85208,-0.64321 -0.79375,-0.42432 -0.79375,-0.42432 -0.19061,-0.002 -0.19058,-0.002 -1.52921,-0.69788 -1.52918,-0.69787 -1.81449,-1.0805 -1.81449,-1.0805 -2.02353,-1.75149 -2.02353,-1.75148 -1.09652,-1.43108 -1.09651,-1.43108 -0.50546,-0.92604 -0.50546,-0.92604 -0.64542,-1.5875 -0.64543,-1.5875 v -3.30729 -3.30729 l 0.68427,-1.45521 0.68424,-1.45521 1.34302,-1.46687 1.343,-1.46686 -2.42414,-0.61789 -2.42414,-0.6179 -2.0244,-1.06114 -2.02441,-1.06113 -0.98536,-1.2921 -0.98536,-1.29209 -0.12856,-1.14056 -0.12854,-1.14056 0.4128,-0.79832 0.41283,-0.79832 0.94933,-0.83352 0.94932,-0.83352 1.24701,-0.62362 1.24701,-0.62362 2.24896,-0.66649 2.24896,-0.66649 3.0427,-0.56175 3.04271,-0.56175 5.15938,-0.52951 5.15937,-0.52951 3.175,-0.25283 3.175,-0.25283 3.43958,-0.27959 3.43959,-0.27959 6.35,-0.52493 6.35,-0.52493 2.46959,-0.26509 2.4696,-0.26509 0.7054,-0.12252 0.70541,-0.12251 2.51354,-0.41168 2.51354,-0.41169 2.11667,-0.39683 2.11666,-0.39682 0.63111,-0.11887 0.63112,-0.11888 0.10128,-0.10127 0.10125,-0.10128 -5.49486,-0.17839 -5.4949,-0.17839 -7.01145,-0.39165 -7.01146,-0.39165 -5.29167,-0.40156 -5.29167,-0.40156 -1.5875,-0.25124 -1.5875,-0.25124 -2.24895,-0.26557 -2.24896,-0.26557 -4.10104,-0.66766 -4.10104,-0.66767 -1.45521,-0.29965 -1.45521,-0.29966 -3.43958,-1.03333 -3.43959,-1.03334 -1.05833,-0.42218 -1.05833,-0.42218 -1.45521,-0.63009 -1.45521,-0.63008 -0.29115,-0.19434 -0.29115,-0.19433 -1.07333,-0.7154 -1.07331,-0.71541 -0.97761,-1.004386 -0.97761,-1.00439 -0.52721,-1.03068 -0.52721,-1.03068 -0.0771,-0.9537 -0.0771,-0.95369 0.50106,-1.32291 0.50107,-1.32292 0.85786,-0.95016 0.85786,-0.95016 1.71979,-1.18943 1.71979,-1.18943 1.99628,-0.94472 1.99628,-0.9447 2.63393,-0.81317 2.63393,-0.81316 2.77812,-0.64137 2.77813,-0.64138 1.85208,-0.27504 1.85209,-0.27504 2.11666,-0.27885 2.11667,-0.27885 4.36562,-0.44512 4.36563,-0.44513 8.33437,-0.0184 8.33438,-0.0184 3.43958,0.20985 3.43958,0.20986 0.74105,0.099 0.74104,0.0991 1.90479,0.1587 1.90479,0.1587 2.11667,0.2824 2.11666,0.2824 3.41226,0.5278 3.41225,0.52781 4.12837,1.02644 4.12837,1.02643 1.45521,0.55831 1.45521,0.55831 1.05833,0.38644 1.05834,0.38643 2.68131,1.34163 2.68131,1.34164 2.28757,1.71684 2.28756,1.71684 1.5698,1.82392 1.56979,1.82392 1.04426,2.18736 1.04426,2.187366 0.28842,1.40208 0.28842,1.40209 -0.003,1.77291 -0.003,1.77292 -0.39454,1.30056 -0.39455,1.30057 -0.64169,1.08068 -0.6417,1.08069 -1.06886,1.05833 -1.06886,1.05833 -0.009,0.15634 -0.009,0.15633 1.49953,0.33558 1.4995,0.33557 1.57758,0.51789 1.57755,0.51789 1.65065,1.04249 1.65066,1.04248 0.68143,0.99043 0.68144,0.99042 0.27937,0.74483 0.27938,0.74483 v 1.05424 1.05425 l -0.37431,0.71447 -0.37431,0.71446 -0.88246,0.83715 -0.88247,0.83714 -1.5875,0.79003 -1.5875,0.79002 -2.11666,0.53906 -2.11667,0.53907 -2.51354,0.39802 -2.51354,0.39803 -1.5875,0.16106 -1.5875,0.16106 -0.66146,0.11347 -0.66146,0.11347 -7.54062,0.39793 -7.54063,0.39794 -6.74687,0.27161 -6.74688,0.27162 -3.70416,0.2709 -3.70417,0.2709 -3.30729,0.41851 -3.30729,0.4185 -0.35896,0.19419 -0.35896,0.1942 1.285,0.17794 1.285,0.17794 5.55625,0.37643 5.55625,0.37644 3.70417,0.16278 3.70416,0.16278 5.82083,0.38179 5.82084,0.38178 2.24896,0.27341 2.24895,0.27341 2.24896,0.27715 2.24896,0.27714 2.38125,0.37541 2.38125,0.37542 1.98438,0.38988 1.98437,0.38989 0.92604,0.23985 0.92604,0.23985 2.11667,0.57249 2.11667,0.5725 2.43287,0.93543 2.43284,0.93545 1.5018,0.90433 1.5018,0.90434 h 0.11155 0.11152 l 1.37777,1.02887 1.37776,1.02887 0.82542,0.88936 0.8254,0.88936 0.71376,1.24429 0.7138,1.2443 0.14774,1.4315 0.14774,1.4315 -0.43145,1.29898 -0.43146,1.29898 -1.19382,1.36472 -1.19383,1.36471 -2.29986,1.33459 -2.29987,1.33458 -3.31803,1.0415 -3.31804,1.04149 -2.11666,0.42215 -2.11667,0.42215 -1.98437,0.37526 -1.98438,0.37525 -3.57187,0.41094 -3.57188,0.41094 -4.7625,0.26155 -4.7625,0.26155 -5.68854,0.10301 -5.68854,0.103 -2.38125,-0.0869 z m -522.41978,-0.91065 -3.83646,-0.24269 -4.72121,-0.66609 -4.72121,-0.66609 -2.29024,-0.5545 -2.29025,-0.5545 -2.51355,-0.74089 -2.51354,-0.74088 -1.38203,-0.54869 -1.38204,-0.5487 -0.47004,-0.24822 -0.47005,-0.24822 -1.5875,-0.73455 -1.5875,-0.73455 -1.73475,-1.12023 -1.73475,-1.12023 -1.44025,-1.26928 -1.44025,-1.26929 -0.87275,-0.93382 -0.87274,-0.93383 -1.18089,-1.76006 -1.1809,-1.76006 -0.68589,-1.54723 -0.68588,-1.54723 -0.49034,-1.5875 -0.49035,-1.5875 -0.33151,-1.98437 -0.33151,-1.98438 0.005,-3.96875 0.005,-3.96875 0.4665,-2.91041 0.46649,-2.91042 0.53139,-2.11667 0.53139,-2.11666 0.94374,-2.77813 0.94374,-2.77812 1.04245,-2.38125 1.04245,-2.38125 1.20277,-2.38125 1.20276,-2.38125 0.43547,-0.79375 0.43547,-0.79375 1.94166,-2.91042 1.94165,-2.910416 1.48395,-1.85208 1.48395,-1.85208 2.41209,-2.41771 2.4121,-2.4177 2.21902,-1.6453 2.21902,-1.64531 2.5791,-1.29425 2.57909,-1.29425 2.28447,-0.66201 2.28447,-0.66201 2.81467,0.003 2.81468,0.003 1.4277,0.37998 1.42771,0.37998 1.615,0.99458 1.615,0.99457 0.88833,0.93741 0.88832,0.93741 0.64812,1.27775 0.64812,1.27775 0.48868,1.63267 0.48867,1.63266 0.19167,1.32292 0.19166,1.32292 -0.0435,10.112086 -0.0435,10.11209 0.40837,2.35363 0.40836,2.35364 0.52848,1.53605 0.52848,1.53604 0.70408,1.21177 0.70408,1.21177 1.17256,1.38163 1.17257,1.38164 1.76014,1.11635 1.76014,1.11635 1.54526,0.7527 1.54526,0.7527 0.96828,0.34919 0.96828,0.3492 1.5875,0.54176 1.5875,0.54175 2.51355,0.6888 2.51354,0.68879 1.71979,0.37073 1.71979,0.37073 1.85208,0.43156 1.85209,0.43157 2.24896,0.52812 2.24895,0.52813 1.85209,0.54475 1.85208,0.54475 1.5875,0.55669 1.5875,0.5567 2.17497,1.27612 2.17498,1.27613 0.91861,1.20307 0.91861,1.20307 0.4449,1.33946 0.4449,1.33947 -0.14884,1.25671 -0.14884,1.25672 -0.5545,1.17964 -0.55449,1.17965 -1.2922,1.44981 -1.2922,1.44981 -1.93982,1.33325 -1.93983,1.33325 -1.71979,0.82044 -1.71979,0.82045 -1.85209,0.78278 -1.85208,0.78278 -3.30729,0.91682 -3.30729,0.91683 -0.66146,0.13466 -0.66146,0.13466 -2.11667,0.43013 -2.11666,0.43013 -3.70417,0.52331 -3.70417,0.52331 -3.175,0.26151 -3.175,0.26152 -5.55625,0.11809 -5.55624,0.11809 -3.83646,-0.24269 z m -125.54479,-1.32895 -2.64583,-0.21195 -2.91042,-0.43712 -2.91041,-0.43712 -1.71979,-0.3916 -1.7198,-0.39158 -2.11666,-0.65782 -2.11667,-0.65782 -1.71979,-0.68453 -1.71979,-0.68454 -0.92604,-0.41045 -0.92605,-0.41044 -0.13229,-0.16082 -0.13229,-0.16082 -1.19062,-0.58689 -1.19063,-0.5869 -1.74239,-1.25045 -1.74239,-1.25045 -1.53926,-1.5875 -1.53926,-1.5875 -1.19266,-1.85208 -1.19267,-1.85208 -0.50831,-1.19063 -0.50831,-1.19062 -0.36195,-0.80585 -0.36196,-0.80585 -0.29979,-1.31082 -0.29979,-1.31082 -0.10386,-0.50837 -0.10386,-0.50837 -0.20489,-1.34371 -0.2049,-1.34371 0.021,-4.10104 0.021,-4.10104 0.31741,-1.98438 0.31741,-1.98437 0.67794,-2.77813 0.67793,-2.77812 1.00261,-2.91533 1.00261,-2.91534 0.93,-2.24404 0.92999,-2.24404 1.52506,-2.91042 1.52506,-2.91042 1.21451,-1.89083 1.21452,-1.89084 1.32291,-1.930946 1.32292,-1.93094 2.2643,-2.52822 2.2643,-2.52822 2.23362,-1.93454 2.23361,-1.93454 1.7698,-1.18391 1.76981,-1.1839 1.93436,-0.9957 1.93437,-0.9957 1.85208,-0.71501 1.85208,-0.71501 2.38125,-0.57409 2.38125,-0.5741 3.83646,-0.01 3.83646,-0.01 1.71979,0.49431 1.71979,0.49432 1.54311,0.76614 1.5431,0.76613 1.13105,1.13104 1.13104,1.13105 1.13098,1.96302 1.13098,1.96302 0.88934,1.36492 0.88935,1.36492 1.24973,1.10006 1.24973,1.10006 1.88877,0.90846 1.88877,0.90846 h 0.38234 0.38234 l 0.25135,0.22031 0.25136,0.22031 1.98437,0.43795 1.98438,0.43795 3.175,0.65945 3.175,0.65946 3.57187,0.68724 3.57188,0.687246 2.91041,0.75306 2.91042,0.75306 1.71304,0.55723 1.71304,0.55724 2.71606,1.29743 2.71605,1.29743 1.52403,1.17532 1.52403,1.17532 1.36217,1.44376 1.36217,1.44377 0.71677,1.41448 0.71678,1.41448 0.39066,1.07719 0.39067,1.07718 0.33541,2.03433 0.33542,2.03432 -0.0835,2.2024 -0.0835,2.20239 -0.41584,1.98099 -0.41584,1.98099 -0.52028,1.75006 -0.52028,1.75006 -1.07005,2.31611 -1.07004,2.3161 -1.04611,1.57494 -1.0461,1.57494 v 0.13172 0.13171 l -1.72985,2.1523 -1.72985,2.15229 -2.10543,2.18233 -2.10542,2.18233 -3.41256,2.6587 -3.41258,2.6587 h -0.15534 -0.15535 l -1.39419,0.89097 -1.3942,0.89096 -2.38125,1.19353 -2.38125,1.19353 -2.77813,1.08052 -2.77812,1.08052 -3.04271,0.95203 -3.04271,0.95203 -1.5875,0.3636 -1.5875,0.36359 -2.24896,0.51464 -2.24896,0.51465 -3.175,0.42526 -3.175,0.42525 -3.70416,0.26568 -3.70417,0.26568 -3.70417,-0.0347 -3.70416,-0.0347 z m 27.25209,-29.41479 0.79375,-0.14266 1.98437,-0.18243 1.98438,-0.18244 1.85138,-0.41006 1.85139,-0.41006 -0.62314,-0.23052 -0.62315,-0.23051 -1.75741,-0.25774 -1.75741,-0.25773 -1.19062,-0.17209 -1.19063,-0.17208 -11.37708,-0.0754 -11.37708,-0.0754 -3.04271,0.25006 -3.04271,0.25007 -2.10991,0.40958 -2.1099,0.40957 -0.38555,0.21577 -0.38554,0.21576 1.43711,0.28434 1.43712,0.28434 1.98165,0.1817 1.98166,0.18171 -0.52645,0.19173 -0.52644,0.19174 12.96458,-0.0623 12.96459,-0.0623 z m 1.36701,0.15565 -0.17639,-0.17639 -0.17639,0.17639 -0.17639,0.17639 h 0.35278 0.35278 z m 175.90381,29.17081 -1.5875,-0.32249 -1.32291,-0.68933 -1.32292,-0.68934 -1.01645,-1.00038 -1.01646,-1.00037 -0.7305,-1.07074 -0.73051,-1.07073 -0.54526,-1.47013 -0.54527,-1.47013 -0.32191,-1.57258 -0.32191,-1.57258 -0.0819,-3.30729 -0.0819,-3.30729 0.5146,-3.175 0.5146,-3.175 0.23735,-1.32292 0.23734,-1.32292 1.11682,-3.70416 1.11682,-3.70417 1.16662,-3.04271 1.16663,-3.0427 0.42333,-0.92605 0.42336,-0.92604 1.04664,-2.11666 1.04667,-2.11667 0.20579,-0.26458 0.20582,-0.26459 0.738,-1.32291 0.73803,-1.32292 0.68644,-1.21772 0.68646,-1.21772 1.05833,-1.63563 1.05833,-1.63563 2.24264,-2.96748 2.24266,-2.96749 3.85252,-3.836456 3.85254,-3.83645 3.03295,-2.13406 3.03294,-2.13405 1.32292,-0.76675 1.32292,-0.76674 1.50373,-0.73972 1.50373,-0.73971 2.12114,-0.90788 2.12111,-0.90788 2.19599,-0.69879 2.19596,-0.69879 1.19063,-0.22281 1.19062,-0.2228 2.11667,-0.39818 2.11667,-0.39818 1.71979,-0.19197 1.71979,-0.19199 3.70417,0.0333 3.70416,0.0333 2.77813,0.53156 2.77812,0.53155 1.19063,0.25063 1.19062,0.25062 2.15813,0.7971 2.15813,0.7971 1.81665,0.91485 1.81666,0.91485 2.07811,1.37618 2.07809,1.37618 2.25071,2.15649 2.2507,2.1565 1.82793,2.71985 1.8279,2.719836 1.27603,2.70411 1.27601,2.70411 0.39597,0.92604 0.39598,0.92605 0.92816,3.43958 0.92818,3.43958 0.42733,2.24896 0.42733,2.24896 0.26643,2.38125 0.26644,2.38125 0.003,5.0439 0.003,5.04391 -0.41566,3.02589 -0.41569,3.02588 -0.0968,0.79375 -0.0968,0.79375 -0.53882,2.24896 -0.53885,2.24896 -0.51211,1.5875 -0.5121,1.5875 -0.54033,1.45521 -0.54036,1.4552 -0.81222,1.54797 -0.81221,1.54797 -0.83363,1.23016 -0.83362,1.23015 -1.02642,1.24356 -1.02645,1.24355 -1.90466,1.40228 -1.90466,1.40228 -0.92604,0.44815 -0.92604,0.44815 -1.19062,0.38193 -1.19063,0.38193 -1.60544,0.18249 -1.60544,0.18249 -1.70185,-0.29532 -1.70185,-0.29533 -0.79375,-0.28885 -0.79375,-0.28885 -1.05834,-0.49298 -1.05833,-0.49299 -1.49008,-1.12604 -1.49005,-1.12603 -1.17414,-1.32292 -1.17415,-1.32291 -0.80817,-1.19063 -0.80814,-1.19062 -1.055,-2.24896 -1.05497,-2.24896 -1.07778,-3.30729 -1.07781,-3.30729 -0.44127,-1.98438 -0.4413,-1.98437 -0.23606,-0.79375 -0.23604,-0.79375 -1.06227,-5.29167 -1.06228,-5.29166 -0.81986,-2.8251 -0.81987,-2.8251 -0.64703,-0.60785 -0.64704,-0.60786 -0.71335,0.39762 -0.71334,0.39762 -1.38983,1.84471 -1.3898,1.84471 -1.55639,2.64583 -1.55641,2.64583 -0.91419,1.71979 -0.91418,1.71979 -1.9354,3.3073 -1.93543,3.30729 -0.45128,0.66146 -0.4513,0.66145 -2.34312,3.57188 -2.34312,3.57187 -1.1956,1.5875 -1.1956,1.5875 -2.84575,2.91042 -2.84576,2.91042 -0.97536,0.66146 -0.97538,0.66145 -0.29559,0.29541 -0.2956,0.2954 -1.97247,1.11773 -1.97244,1.11774 -0.92604,0.39281 -0.92604,0.39282 -1.05833,0.35516 -1.05834,0.35516 -1.90277,0.28628 -1.90276,0.28629 -0.74308,-0.0259 -0.74305,-0.0259 -1.5875,-0.32249 z m 293.95208,0.008 -1.5875,-0.31442 -1.71979,-0.81519 -1.7198,-0.81519 -1.83319,-1.55645 -1.83319,-1.55646 -1.42068,-1.85208 -1.42071,-1.85208 -1.15321,-2.38125 -1.15319,-2.38125 -0.38967,-0.92604 -0.38968,-0.92604 -0.55041,-1.7198 -0.55039,-1.71979 -0.80267,-3.9058 -0.80266,-3.9058 -0.30494,-4.47237 -0.30493,-4.47238 0.30319,-4.58641 0.30321,-4.5864 0.77338,-3.70417 0.77337,-3.70416 0.69133,-2.38125 0.69131,-2.38125 0.67588,-1.7198 0.67587,-1.71979 1.32514,-2.51354 1.32512,-2.513536 0.63534,-0.84224 0.63534,-0.84225 v -0.16153 -0.16154 l 1.26709,-1.50976 1.26709,-1.50976 1.84177,-1.73173 1.84176,-1.73172 1.05833,-0.78182 1.05834,-0.78182 0.79375,-0.47154 0.79375,-0.47154 3.175,-1.55296 3.175,-1.55296 1.71979,-0.43877 1.71979,-0.43877 0.92604,-0.23209 0.92604,-0.2321 1.5875,-0.2756 1.5875,-0.27559 1.5875,-0.16942 1.5875,-0.16942 2.51355,-0.009 2.51354,-0.009 2.11666,0.19787 2.11667,0.19787 1.32292,0.22532 1.32291,0.22532 2.38125,0.52595 2.38125,0.52596 1.98438,0.65771 1.98437,0.6577 2.11667,0.90925 2.11667,0.90924 1.4552,0.73124 1.45521,0.73123 1.5875,0.95708 1.5875,0.95707 1.85209,1.30851 1.85208,1.30852 1.45037,1.20853 1.45036,1.20853 2.69285,2.69607 2.69288,2.696066 1.5453,1.93296 1.54532,1.93295 1.07358,1.45639 1.07354,1.45639 1.05244,1.5875 1.0524,1.5875 0.91673,1.55421 0.91673,1.55421 0.7525,1.35621 0.7525,1.3562 1.43031,2.82516 1.43031,2.82517 v 0.17756 0.17756 l 0.38593,0.83373 0.38592,0.83374 1.17073,3.175 1.1707,3.175 0.59393,2.11667 0.59397,2.11666 0.50371,2.10277 0.50374,2.10276 0.26353,1.73369 0.26352,1.7337 0.18185,1.85208 0.18185,1.85209 0.009,2.11666 0.009,2.11667 -0.19513,1.53098 -0.19513,1.53098 -0.66453,1.97965 -0.66455,1.97965 -0.62897,0.98729 -0.629,0.98728 -1.05661,1.19063 -1.05664,1.19062 -1.69542,0.84192 -1.69545,0.84192 -1.7888,0.3115 -1.78877,0.31151 -2.1726,-0.31185 -2.17257,-0.31185 -1.05833,-0.35854 -1.05834,-0.35854 -0.92604,-0.39281 -0.92604,-0.39282 -1.98437,-1.11999 -1.98438,-1.11999 -0.13229,-0.17832 -0.13229,-0.17831 -1.19063,-0.82018 -1.19062,-0.82018 -2.25788,-2.21165 -2.25787,-2.21166 -1.71088,-2.20846 -1.71087,-2.20846 -1.91823,-2.77677 -1.91823,-2.77676 v -0.23371 -0.2337 h -0.26458 -0.26459 v -0.27026 -0.27026 l -0.71003,-1.1188 -0.71004,-1.11881 -0.87384,-1.36228 -0.87381,-1.36228 -0.264,-0.69433 -0.26398,-0.69434 -0.91667,-1.43297 -0.91665,-1.43297 -0.60894,-1.11036 -0.60891,-1.11035 -0.26458,-0.44234 -0.26459,-0.44234 -1.82687,-3.09381 -1.82686,-3.0938 -1.43648,-1.58735 -1.43648,-1.58735 h -0.48537 -0.48541 l -0.52387,0.85989 -0.52391,0.8599 -0.44735,1.32291 -0.44736,1.32292 -0.38097,1.71979 -0.38095,1.71979 -0.80084,3.96875 -0.80084,3.96875 -1.07961,4.36563 -1.07958,4.36562 -0.75477,2.33005 -0.75478,2.33005 -1.18896,2.51042 -1.18896,2.51042 -0.80743,1.17354 -0.8074,1.17354 -1.48608,1.60514 -1.48609,1.60515 -1.36483,0.90593 -1.36482,0.90592 -1.43949,0.63333 -1.43947,0.63333 -1.74146,0.30045 -1.74146,0.30044 -0.90437,-0.0259 -0.90438,-0.0259 -1.5875,-0.31441 z"
       id="path1142" />
  </g>
</svg>
